<?xml version="1.0" encoding="UTF-8"?>
<svg id="Layer_1" xmlns="http://www.w3.org/2000/svg" version="1.1" viewBox="0 0 566.9 566.9">
  <!-- Generator: Adobe Illustrator 30.0.0, SVG Export Plug-In . SVG Version: 2.1.1 Build 123)  -->
  <defs>
    <style>
      .st0, .st1 {
        fill: #0c508c;
      }

      .st1 {
        fill-rule: evenodd;
      }

      .st2 {
        fill: #d72027;
      }
    </style>
  </defs>
  <path class="st1" d="M248.5,178.4v46.3c0,9.1-7.4,16.5-16.5,16.5h-46.9c-9.1,0-16.5,7.4-16.5,16.5v41.9c0,9.1,7.4,16.5,16.5,16.5h50.2c9.1,0,16.5,7.4,16.5,16.5v56.9c0,9.1,7.4,16.5,16.5,16.5h40c9.1,0,16.5-7.4,16.5-16.5v-57.6c0-9.1,7.4-16.5,16.5-16.5h49.1c9.1,0,16.5-7.4,16.5-16.5v-39.1c0-9.1-7.4-16.5-16.5-16.5h-49.2c-9.1,0-16.5-7.4-16.5-16.5v-50.2c0-9.4-7.9-17-17.4-16.4s-30.1,1.6-42.7,1.8-16.2,7.5-16.2,16.5Z"/>
  <path class="st0" d="M150.2,464.2l-81.3-50.2c-5-3.1-8.1-8.6-8.1-14.5v-224.2c0-6,3.1-11.5,8.2-14.6l211.9-127.7c5.2-3.1,11.7-3.3,17-.3l212.9,118.3c5.4,3,8.7,8.7,8.7,14.9v35c0,9.4-7.6,17-17,17h0c-9.4,0-17-7.6-17-17v-15c0-6.2-3.3-11.9-8.7-14.9l-178.2-99c-5.3-3-11.8-2.8-17,.3l-178.6,107.6c-5.1,3.1-8.2,8.6-8.2,14.6v186c0,5.9,3.1,11.4,8.1,14.5l65.1,40.2c8,4.9,10.5,15.4,5.5,23.4h0c-4.9,8-15.4,10.5-23.4,5.5Z"/>
  <path class="st2" d="M269.6,536.5l-89.7-54c-8-4.8-10.7-15.3-5.8-23.3h0c4.8-8,15.3-10.7,23.3-5.8l72.5,43.6c5.3,3.2,12,3.2,17.3.1l190.9-111.4c5.3-3.1,8.5-8.7,8.4-14.8l-.9-134.5c0-9.4,7.5-17.1,16.9-17.1h0c9.4,0,17.1,7.5,17.1,16.9l1,154.2c0,6.1-3.2,11.7-8.4,14.8l-225.3,131.5c-5.4,3.1-12,3.1-17.3-.1Z"/>
</svg>